<?xml version="1.0" standalone="no"?>
<!DOCTYPE svg PUBLIC "-//W3C//DTD SVG 20010904//EN"
 "http://www.w3.org/TR/2001/REC-SVG-20010904/DTD/svg10.dtd">
<svg version="1.0" xmlns="http://www.w3.org/2000/svg"
 width="4267.000000pt" height="1153.000000pt" viewBox="0 0 4267.000000 1153.000000"
 preserveAspectRatio="xMidYMid meet">

<g transform="translate(0.000000,1153.000000) scale(0.100000,-0.100000)"
fill="#d81f26" stroke="none">
<path d="M1615 9423 c-257 -15 -540 -80 -700 -160 -179 -90 -375 -254 -487
-410 -155 -215 -258 -493 -305 -818 -17 -123 -18 -243 -18 -2255 0 -1700 3
-2145 13 -2225 91 -689 413 -1077 988 -1191 135 -27 473 -25 654 4 365 59 655
162 899 319 441 285 704 743 760 1327 16 164 15 1146 -1 1146 -7 0 -123 -9
-258 -20 -479 -39 -735 -61 -757 -65 l-21 -5 -5 -562 c-4 -525 -5 -569 -25
-656 -24 -106 -64 -197 -113 -259 -162 -202 -543 -292 -775 -184 -124 58 -194
153 -230 311 -23 103 -27 684 -16 2680 9 1551 9 1555 30 1635 60 218 174 336
382 391 100 26 273 24 378 -5 141 -40 257 -133 309 -249 56 -127 63 -196 63
-674 l0 -438 33 0 c59 0 921 40 976 46 l53 6 -5 456 c-4 365 -8 478 -22 562
-51 315 -158 577 -316 770 -119 146 -298 284 -474 366 -251 116 -655 179
-1010 157z"/>
<path d="M5900 9424 c-382 -33 -587 -84 -808 -200 -136 -71 -227 -140 -340
-257 -194 -202 -313 -452 -373 -782 -33 -182 -40 -662 -36 -2465 3 -1644 3
-1656 25 -1766 24 -125 86 -324 127 -405 109 -217 312 -416 519 -509 208 -94
413 -132 706 -132 515 -1 983 125 1330 357 135 90 223 168 315 280 94 114 132
170 189 285 110 219 159 416 175 710 6 91 11 926 13 1855 3 1587 2 1697 -15
1800 -58 356 -179 601 -403 816 -282 270 -662 400 -1207 413 -95 2 -192 2
-217 0z m345 -921 c187 -41 309 -160 362 -353 17 -61 18 -166 15 -1865 -2
-1116 -7 -1838 -13 -1899 -12 -119 -45 -227 -89 -296 -73 -114 -225 -212 -380
-246 -105 -22 -278 -22 -355 0 -229 68 -319 207 -331 511 -3 72 -1 931 4 1910
9 1772 9 1780 30 1858 37 135 86 214 172 280 149 113 359 149 585 100z"/>
<path d="M17385 6584 c-4 -1532 -5 -2787 -2 -2790 2 -2 231 3 508 12 277 9
965 21 1529 27 l1025 12 3 393 2 393 -742 -5 c-409 -4 -848 -9 -976 -12 l-232
-5 2 813 3 813 460 6 c253 3 601 7 773 8 l312 1 0 390 0 390 -770 0 -770 0 0
768 0 769 332 6 c182 4 619 7 970 7 l638 0 0 395 0 395 -1529 0 -1528 0 -8
-2786z"/>
<path d="M8777 8088 c-4 -700 -10 -2071 -14 -3046 l-6 -1772 44 5 c24 3 248
24 498 46 250 21 457 41 459 44 3 2 9 924 13 2047 5 1124 10 2097 12 2163 l2
120 78 -240 c43 -132 220 -676 393 -1210 385 -1186 903 -2758 912 -2766 4 -4
250 11 547 32 297 21 554 38 571 39 l31 0 7 2028 c3 1115 9 2422 12 2905 l7
877 -502 0 -501 0 0 -467 c0 -1006 -14 -3033 -20 -3026 -4 4 -24 58 -43 118
-20 61 -173 531 -341 1045 -362 1110 -387 1190 -591 1833 l-158 497 -702 0
-702 0 -6 -1272z"/>
<path d="M13120 8952 l0 -407 590 4 591 3 -5 -733 c-3 -404 -8 -1502 -11
-2441 l-6 -1708 43 0 c66 0 1072 51 1076 55 2 1 5 1053 8 2336 3 1284 7 2371
10 2415 l6 82 584 7 584 7 0 394 0 394 -1735 0 -1735 0 0 -408z"/>
<path d="M21440 6605 l0 -2755 243 0 c133 0 360 -3 504 -7 l263 -6 2 1997 3
1998 124 -354 c67 -194 299 -852 513 -1463 214 -610 473 -1348 575 -1640 101
-291 187 -533 191 -537 9 -9 1140 -43 1148 -35 3 3 2 1254 -2 2781 l-7 2776
-500 0 -500 0 8 -1645 c4 -908 3 -1645 -2 -1645 -7 0 -230 631 -894 2539 -142
409 -259 745 -259 747 0 2 -317 4 -705 4 l-705 0 0 -2755z"/>
<path d="M25790 8967 l0 -394 586 -6 c322 -3 588 -8 591 -11 3 -2 8 -1087 11
-2409 4 -1323 9 -2407 12 -2410 4 -4 1043 -58 1103 -57 16 0 17 24 12 437 -3
241 -7 1337 -10 2435 l-5 1998 585 -7 585 -6 0 411 0 412 -1735 0 -1735 0 0
-393z"/>
<path d="M30064 8468 c3 -491 9 -1794 12 -2895 l7 -2002 41 -5 c34 -5 995 -71
1706 -117 244 -16 583 -7 725 20 266 51 445 131 622 280 126 106 255 317 308
506 55 194 60 246 59 690 0 441 -7 543 -51 730 -95 404 -291 657 -634 819 -52
25 -106 48 -121 51 -28 7 -39 25 -15 25 29 0 219 102 293 157 204 152 319 357
382 678 14 75 17 147 17 430 -1 307 -3 352 -23 464 -51 287 -143 478 -316 660
-159 166 -372 273 -668 336 -269 58 -271 58 -1352 62 l-999 4 7 -893z m1864
29 c198 -52 312 -177 356 -389 24 -114 25 -642 3 -747 -20 -90 -63 -184 -106
-234 -41 -46 -127 -98 -206 -125 -119 -40 -187 -45 -490 -40 -157 3 -287 7
-289 9 -2 2 -7 352 -11 777 l-7 774 344 -5 c274 -3 356 -7 406 -20z m-363
-2377 c127 -5 271 -16 322 -25 237 -39 389 -137 463 -300 67 -148 84 -311 77
-779 -5 -367 -10 -414 -62 -516 -36 -71 -76 -112 -143 -148 -78 -42 -167 -62
-277 -62 -123 -1 -728 32 -736 39 -4 3 -10 410 -14 904 l-7 897 74 0 c40 0
177 -5 303 -10z"/>
<path d="M35355 9338 c-3 -12 -55 -297 -190 -1063 -26 -143 -111 -611 -190
-1040 -79 -429 -183 -994 -230 -1255 -47 -261 -160 -873 -250 -1360 -198
-1064 -254 -1374 -251 -1377 1 -2 85 -10 187 -18 101 -9 330 -32 508 -51 178
-19 324 -34 325 -32 2 2 44 248 96 548 51 300 96 549 100 553 6 7 1368 -107
1375 -115 2 -2 46 -266 99 -587 53 -322 98 -586 99 -588 2 -1 84 -12 183 -23
98 -11 350 -42 559 -69 209 -27 381 -48 382 -47 2 2 -21 139 -317 1821 -289
1648 -399 2270 -510 2880 -60 330 -157 866 -215 1190 -58 325 -108 602 -111
618 l-6 27 -819 0 c-647 0 -820 -3 -824 -12z m796 -1230 c31 -180 224 -1310
333 -1953 59 -341 126 -737 151 -880 25 -142 41 -262 37 -266 -7 -6 -1063 70
-1072 78 -3 3 42 280 99 616 57 337 172 1026 257 1532 182 1093 164 988 171
981 3 -3 14 -52 24 -108z"/>
<path d="M38610 9339 c0 -10 84 -276 205 -649 29 -91 89 -277 133 -415 44
-137 134 -419 200 -625 67 -206 145 -454 176 -550 182 -579 389 -1246 537
-1726 l169 -550 0 -1123 c0 -888 3 -1123 13 -1126 12 -5 1081 -165 1100 -165
6 0 8 425 6 1153 l-3 1152 46 145 c121 383 239 763 497 1605 95 308 199 646
231 750 96 308 640 2122 640 2131 0 2 -240 4 -533 4 l-534 0 -77 -287 c-96
-356 -100 -370 -385 -1418 -49 -181 -149 -546 -222 -810 -72 -264 -139 -508
-147 -542 -9 -35 -19 -63 -24 -63 -4 0 -12 19 -19 43 -14 56 -300 1102 -444
1627 -118 430 -364 1321 -388 1400 l-13 45 -582 3 c-420 1 -582 -1 -582 -9z"/>
</g>
</svg>
