<?xml version="1.0" standalone="no"?>
<!DOCTYPE svg PUBLIC "-//W3C//DTD SVG 20010904//EN"
 "http://www.w3.org/TR/2001/REC-SVG-20010904/DTD/svg10.dtd">
<svg version="1.0" xmlns="http://www.w3.org/2000/svg"
 width="4267.000000pt" height="1153.000000pt" viewBox="0 0 4267.000000 1153.000000"
 preserveAspectRatio="xMidYMid meet">

<g transform="translate(0.000000,1153.000000) scale(0.100000,-0.100000)"
fill="#d81f26" stroke="none">
<path d="M1870 5765 l0 -5765 230 0 230 0 543 80 c298 44 552 83 565 85 l22 5
0 3183 c0 1750 3 3565 7 4032 l7 850 27 -160 c15 -88 89 -520 164 -960 75
-440 219 -1288 320 -1885 340 -1998 835 -4852 844 -4862 6 -7 1710 207 1718
216 2 2 60 356 128 787 155 978 341 2143 446 2784 88 543 247 1524 400 2470
275 1705 299 1848 304 1860 3 6 3 -1740 0 -3878 l-5 -3888 32 5 c94 16 1619
175 1684 176 8 0 13 1045 18 3798 3 2088 9 4480 13 5315 l6 1517 -1282 0
c-704 0 -1281 -2 -1281 -4 0 -4 -354 -2208 -620 -3856 -82 -509 -169 -1053
-194 -1210 -25 -157 -70 -440 -100 -630 -30 -190 -117 -739 -192 -1220 -75
-481 -139 -877 -140 -879 -9 -10 -14 16 -58 274 -25 149 -73 425 -105 615
-196 1134 -244 1416 -376 2190 -80 470 -290 1715 -466 2765 -175 1051 -322
1920 -324 1933 l-5 22 -1280 0 -1280 0 0 -5765z"/>
<path d="M10855 11458 c13 -40 106 -323 205 -628 503 -1538 1206 -3666 1604
-4855 l446 -1330 0 -1727 0 -1728 33 0 c17 0 226 13 462 30 395 27 1185 70
1291 70 l44 0 0 1704 0 1704 456 1358 c693 2064 741 2207 1304 3859 128 374
303 890 390 1148 l159 467 -872 0 -872 0 -162 -542 c-89 -299 -253 -847 -364
-1218 -384 -1290 -860 -2874 -863 -2878 -5 -4 -8 4 -110 348 -46 157 -183 618
-304 1025 -238 798 -242 813 -656 2230 -53 182 -142 488 -199 680 l-102 350
-957 3 -957 2 24 -72z"/>
<path d="M18510 9143 c0 -1314 -3 -3586 -7 -5051 l-6 -2663 294 7 c162 3 575
9 919 13 l625 6 3 2092 2 2091 68 8 c37 4 570 5 1185 2 l1117 -6 -2 722 -3
721 -1182 3 -1183 2 0 1530 0 1530 1510 0 1510 0 0 690 0 690 -2425 0 -2425 0
0 -2387z"/>
<path d="M24745 6473 c4 -2782 8 -5059 9 -5060 0 -1 323 -11 716 -22 1054 -32
3780 -168 4099 -206 l44 -5 -5 741 c-3 407 -8 742 -9 744 -6 5 -1021 64 -1304
75 -409 16 -1710 72 -1711 73 -1 1 -5 1963 -9 4360 l-8 4357 -914 0 -915 0 7
-5057z"/>
<path d="M30894 9678 c3 -1019 9 -3368 12 -5219 l7 -3366 91 -6 c50 -3 459
-38 908 -78 450 -40 821 -70 824 -66 3 3 1 2147 -5 4764 -6 2617 -11 4998 -11
5291 l0 532 -916 0 -917 0 7 -1852z"/>
<path d="M34344 11408 c24 -68 78 -215 119 -328 42 -113 121 -329 175 -480 55
-151 180 -493 277 -760 97 -267 207 -570 245 -675 38 -104 128 -354 200 -555
172 -478 566 -1583 720 -2022 l122 -347 -232 -628 c-128 -345 -269 -729 -315
-853 -499 -1352 -856 -2302 -1392 -3704 -52 -136 -91 -251 -86 -255 4 -4 377
-47 828 -95 451 -49 831 -90 845 -93 29 -5 -18 -128 435 1137 456 1276 849
2382 1035 2915 29 83 56 154 60 158 8 9 34 -68 399 -1178 414 -1263 652 -1998
987 -3053 100 -316 121 -373 139 -377 11 -3 340 -52 732 -110 l712 -105 216 0
c118 0 215 3 215 7 0 39 -1204 3665 -1814 5464 l-206 607 171 483 c94 266 204
579 244 694 40 116 133 379 205 585 300 853 729 2098 1096 3178 l173 512 -849
0 -849 0 -15 -47 c-13 -43 -208 -618 -731 -2158 -147 -433 -534 -1561 -604
-1760 -16 -43 -32 -80 -37 -82 -5 -2 -51 124 -103 279 -128 389 -946 2827
-1122 3346 l-143 422 -948 0 -948 0 44 -122z"/>
</g>
</svg>
